<svg xmlns="http://www.w3.org/2000/svg" viewBox="0 0 100 110" fill="none" role="img" aria-label="Símbolo Fundación Betania">
  <title>Símbolo Fundación Betania</title>
  <!-- Vasija / Jar shape en amarillo sobre fondo azul -->
  <rect width="100" height="110" rx="10" fill="#3f4eb5"/>
  <!-- Cuello de la vasija -->
  <path d="M 35 16 Q 34 11 40 9 L 60 9 Q 66 11 65 16 L 68 21 Q 80 23 81 31 L 84 48 Q 86 62 85 74 Q 84 88 78 95 Q 70 101 50 101 Q 30 101 22 95 Q 16 88 15 74 L 14 48 Q 13 30 25 28 L 32 21 Z" fill="#ffd370"/>
  <!-- Llama (negativo en azul) -->
  <path d="M 43 74 Q 38 65 42 54 Q 45 46 50 42 Q 50 50 53 54 Q 56 47 55 38 Q 60 45 62 56 Q 65 67 58 74 Q 55 78 50 79 Q 45 78 43 74 Z" fill="#3f4eb5"/>
  <!-- Paloma (negativo en amarillo) -->
  <path d="M 50 68 Q 44 64 43 59 Q 44 55 48 57 L 50 59 L 52 57 Q 56 55 57 59 Q 56 64 50 68 Z" fill="#ffd370"/>
</svg>
